<?xml version="1.0" standalone="no"?><!DOCTYPE svg PUBLIC "-//W3C//DTD SVG 1.1//EN" "http://www.w3.org/Graphics/SVG/1.1/DTD/svg11.dtd"><svg t="1781631839196" class="icon" viewBox="0 0 1024 1024" version="1.1" xmlns="http://www.w3.org/2000/svg" p-id="14985" xmlns:xlink="http://www.w3.org/1999/xlink" width="200" height="200"><path d="M950.84147 413.534945a417.557659 417.557659 0 0 0-107.150459-281.370522A399.565158 399.565158 0 0 0 578.045641 1.170244a395.688725 395.688725 0 0 0-281.516803 89.816221A415.290311 415.290311 0 0 0 150.394629 353.267383a418.362201 418.362201 0 0 0 6.655762 153.594515 413.534945 413.534945 0 0 0 168.222564 248.091711c42.421342 28.963537 88.426556 49.003964 138.235063 59.975001V1023.96343s328.25342-171.879576 449.300525-435.038177c0-2.92561 1.901646-5.119817 3.07189-7.752866A415.582872 415.582872 0 0 0 950.84147 413.534945z" fill="#000000" p-id="14986"></path></svg>